<?xml version="1.0" encoding="UTF-8" standalone="no"?>
<!DOCTYPE svg PUBLIC "-//W3C//DTD SVG 1.1//EN" "http://www.w3.org/Graphics/SVG/1.1/DTD/svg11.dtd">
<svg width="100%" height="100%" viewBox="0 0 1580 1496" version="1.1" xmlns="http://www.w3.org/2000/svg" xmlns:xlink="http://www.w3.org/1999/xlink" xml:space="preserve" xmlns:serif="http://www.serif.com/" style="fill-rule:evenodd;clip-rule:evenodd;stroke-linecap:round;stroke-linejoin:round;stroke-miterlimit:1.5;">
    <g transform="matrix(1,0,0,1,-1606.856149,-499.372386)">
        <g transform="matrix(-0.925778,0.378068,0.378068,0.925778,3383.213513,-550.51416)">
            <g transform="matrix(0.753656,0,0,1,314.088864,0)">
                <path d="M1910.485,503C2244.97,503 2544.81,615.675 2544.81,1039C2544.81,1462.325 2173.592,1823 2031.23,1823C1888.867,1823 1275,1459.763 1275,1039C1275,618.237 1576,503 1910.485,503Z" style="fill:rgb(194,86,255);"/>
            </g>
            <path d="M1588.574,1644C1445.832,1566.606 1481.377,1443.695 1526,1381C1578.577,1307.131 1788.38,1240.157 1788.38,1240.157" style="fill:none;stroke:rgb(35,31,32);stroke-width:41.67px;"/>
            <path d="M1829.31,512.883C1992.842,485.741 2040.577,601.571 1944,745.332C1847.423,889.094 1615.998,964.562 1615.998,964.562" style="fill:none;stroke:rgb(35,31,32);stroke-width:41.67px;"/>
            <path d="M1295.284,1163C1262.325,1132.096 1237.746,1093.845 1275,1064C1327.021,1022.325 1609.888,969.261 1753.937,965C1897.986,960.739 2197.255,980.305 2230.23,1039C2257.895,1088.243 2255.246,1105.537 2220.89,1142C2186.535,1178.463 1883.296,1094.683 1753.937,1090C1624.578,1085.317 1350.716,1214.977 1295.284,1163Z" style="fill:none;stroke:rgb(35,31,32);stroke-width:41.67px;"/>
            <g transform="matrix(0.944984,0,0,0.847209,95.049953,301.408098)">
                <path d="M1306.747,1199.155C1273.788,1168.251 1252.561,1103.042 1289.815,1073.196C1341.836,1031.521 1609.888,969.261 1753.937,965C1897.986,960.739 2206.37,976.746 2232,1039C2252.461,1088.699 2248.758,1104.367 2232,1142C2211.621,1187.766 1883.296,1094.683 1753.937,1090C1624.578,1085.317 1362.179,1251.131 1306.747,1199.155Z" style="fill:none;stroke:rgb(35,31,32);stroke-width:46.43px;"/>
            </g>
            <path d="M1275,1039C1275,1039 1252.141,866.086 1324,731C1395.859,595.914 1555.647,466.49 1662,528C1768.353,589.51 1518.072,735.88 1446,822C1389.839,889.107 1275,1039 1275,1039Z" style="fill:none;stroke:rgb(35,31,32);stroke-width:35.42px;"/>
            <path d="M1650.381,514.318C1801.884,438.946 1887.752,540.088 1800,666C1712.248,791.912 1397,1012 1397,1012" style="fill:none;stroke:rgb(35,31,32);stroke-width:41.67px;"/>
            <path d="M1980.529,557.434C2192.742,551.793 2126.282,794.105 2031,858C1935.718,921.895 1805.604,964.562 1805.604,964.562" style="fill:none;stroke:rgb(35,31,32);stroke-width:41.67px;"/>
            <path d="M2123.267,662.113C2238.605,759.638 2231.598,828.147 2195.361,874C2149.796,931.656 1967.317,964.562 1967.317,964.562" style="fill:none;stroke:rgb(35,31,32);stroke-width:41.67px;"/>
            <path d="M2220.89,876C2262.919,959.696 2220.89,1012 2220.89,1012" style="fill:none;stroke:rgb(35,31,32);stroke-width:41.67px;"/>
            <path d="M2195.451,1273.54C2131.645,1451.426 2103.914,1518.284 1994.434,1700.568C1897.643,1861.726 1862.993,1661.232 1917,1560C1971.007,1458.768 2195.451,1273.54 2195.451,1273.54Z" style="fill:none;stroke:rgb(35,31,32);stroke-width:41.67px;"/>
            <path d="M1934.562,1753.565C1815.256,1886.69 1704.508,1587.938 1815,1475C1925.492,1362.062 2083.753,1279.46 2083.753,1279.46" style="fill:none;stroke:rgb(35,31,32);stroke-width:41.67px;"/>
            <path d="M1769.504,1555C1708.723,1670.202 1914.562,1881.333 1914.562,1881.333C1914.562,1881.333 1681.527,1785.638 1628,1704C1574.473,1622.362 1569.315,1519.831 1651,1430C1732.685,1340.169 1953.908,1255.251 1953.908,1255.251" style="fill:none;stroke:rgb(35,31,32);stroke-width:41.67px;"/>
            <path d="M1473,1520.783C1322.954,1428.471 1361,1325.899 1361,1325.899" style="fill:none;stroke:rgb(35,31,32);stroke-width:41.67px;"/>
        </g>
        <g transform="matrix(0.866852,0.498565,-0.498565,0.866852,1628.785902,-611.501394)">
            <g transform="matrix(0.753656,0,0,1,314.088864,0)">
                <path d="M1910.485,503C2244.97,503 2544.81,615.675 2544.81,1039C2544.81,1462.325 2173.592,1823 2031.23,1823C1888.867,1823 1275,1459.763 1275,1039C1275,618.237 1576,503 1910.485,503Z" style="fill:rgb(104,255,251);"/>
            </g>
            <path d="M1588.574,1644C1445.832,1566.606 1481.377,1443.695 1526,1381C1578.577,1307.131 1847.849,1235.232 1847.849,1235.232" style="fill:none;stroke:rgb(35,31,32);stroke-width:41.67px;"/>
            <path d="M1834.995,503C1998.528,475.858 2040.577,601.571 1944,745.332C1847.423,889.094 1587.656,982.191 1587.656,982.191" style="fill:none;stroke:rgb(35,31,32);stroke-width:41.67px;"/>
            <g transform="matrix(1,-0.106361,0,1,5.124404,246.802028)">
                <path d="M1340.743,1197.183C1268.236,1140.979 1298.001,1088.496 1335.256,1058.651C1387.277,1016.976 1609.888,969.261 1753.937,965C1897.986,960.739 2183.696,949.86 2216.671,1008.555C2244.336,1057.798 2247.612,1089.503 2213.257,1125.966C2178.901,1162.428 1883.296,1094.683 1753.937,1090C1624.578,1085.317 1400.662,1243.629 1340.743,1197.183Z" style="fill:none;stroke:rgb(35,31,32);stroke-width:43.94px;"/>
            </g>
            <path d="M1275,1039C1275,1039 1252.141,866.086 1324,731C1395.859,595.914 1555.647,466.49 1662,528C1768.353,589.51 1518.072,735.88 1446,822C1389.839,889.107 1275,1039 1275,1039Z" style="fill:none;stroke:rgb(35,31,32);stroke-width:35.42px;"/>
            <path d="M1652.95,512.187C1804.453,436.815 1887.752,540.088 1800,666C1712.248,791.912 1397,1012 1397,1012" style="fill:none;stroke:rgb(35,31,32);stroke-width:41.67px;"/>
            <path d="M1995.211,559C2195.757,569.26 2125.768,803.035 2030.485,866.929C1935.203,930.824 1803.763,971.389 1803.763,971.389" style="fill:none;stroke:rgb(35,31,32);stroke-width:41.67px;"/>
            <path d="M2129.03,663C2244.368,760.525 2231.35,840.227 2195.113,886.08C2149.548,943.737 1973.668,973.599 1973.668,973.599" style="fill:none;stroke:rgb(35,31,32);stroke-width:41.67px;"/>
            <path d="M2220.89,876C2262.919,959.696 2220.89,1012 2220.89,1012" style="fill:none;stroke:rgb(35,31,32);stroke-width:41.67px;"/>
            <path d="M2194.719,1272.095C2128.445,1438.389 2096.094,1520.426 1981.57,1713.801C1885.774,1875.553 1761.727,1747.227 1917,1560C1990.244,1471.683 2194.719,1272.095 2194.719,1272.095Z" style="fill:none;stroke:rgb(35,31,32);stroke-width:41.67px;"/>
            <path d="M1948.618,1758.407C1829.312,1891.531 1704.508,1587.938 1815,1475C1925.492,1362.062 2074.68,1281.824 2074.68,1281.824" style="fill:none;stroke:rgb(35,31,32);stroke-width:41.67px;"/>
            <path d="M1785.397,1523.522C1728.627,1653.721 1914.562,1881.333 1914.562,1881.333C1914.562,1881.333 1681.527,1785.638 1628,1704C1574.473,1622.362 1569.315,1519.831 1651,1430C1732.685,1340.169 1951.108,1258.17 1951.108,1258.17" style="fill:none;stroke:rgb(35,31,32);stroke-width:41.67px;"/>
            <path d="M1473,1520.783C1373.056,1430.92 1361,1325.899 1361,1325.899" style="fill:none;stroke:rgb(35,31,32);stroke-width:41.67px;"/>
            <g transform="matrix(0.918675,-0.395013,0.395013,0.918675,-669.834981,894.374247)">
                <path d="M1700,1040C1653.549,968.579 1687.002,926.772 1775,921C1960.09,908.859 2390,1114 2390,1114" style="fill:none;stroke:rgb(35,31,32);stroke-width:41.67px;"/>
            </g>
            <g transform="matrix(0.918675,-0.395013,0.395013,0.918675,-669.834981,894.374247)">
                <path d="M2550,1372C2533.094,1504.725 2471.267,1502.052 2320,1404C2168.733,1305.948 2140.506,1245.167 1917.164,1186.831" style="fill:none;stroke:rgb(35,31,32);stroke-width:41.67px;"/>
            </g>
        </g>
    </g>
</svg>
